<?xml version="1.0" encoding="UTF-8"?>
<svg width="489px" height="53px" viewBox="0 0 489 53" version="1.1" xmlns="http://www.w3.org/2000/svg" xmlns:xlink="http://www.w3.org/1999/xlink">
    <!-- Generator: Sketch 51.2 (57519) - http://www.bohemiancoding.com/sketch -->
    <title>Group</title>
    <desc>Created with Sketch.</desc>
    <defs>
        <linearGradient x1="48.2575003%" y1="39.7422854%" x2="49.9597897%" y2="98.6094792%" id="linearGradient-1">
            <stop stop-color="#B1F7D5" offset="0%"></stop>
            <stop stop-color="#67E89F" offset="100%"></stop>
        </linearGradient>
    </defs>
    <g id="Page-1" stroke="none" stroke-width="1" fill="none" fill-rule="evenodd">
        <g id="Group" transform="translate(-3.000000, -7.000000)">
            <path d="M360.625,58.625 L307,58.625 L339.5,26.125 L366.3125,52.9375 L412.25,7 L464,58.75 L360.5,58.75 L360.625,58.625 Z" id="Combined-Shape" fill="url(#linearGradient-1)" fill-rule="nonzero" opacity="0.674832589"></path>
            <path d="M8.484375,41.3203125 L24.65625,41.3203125 L24.65625,45 L3.9609375,45 L3.9609375,10.875 L8.484375,10.875 L8.484375,41.3203125 Z M44.265625,45 C44.0156237,44.4999975 43.8125008,43.6093814 43.65625,42.328125 C41.6406149,44.4218855 39.234389,45.46875 36.4375,45.46875 C33.9374875,45.46875 31.8867268,44.7617258 30.2851562,43.3476562 C28.6835857,41.9335867 27.8828125,40.1406359 27.8828125,37.96875 C27.8828125,35.3281118 28.8867087,33.2773511 30.8945312,31.8164062 C32.9023538,30.3554614 35.7265443,29.625 39.3671875,29.625 L43.5859375,29.625 L43.5859375,27.6328125 C43.5859375,26.1171799 43.132817,24.9101607 42.2265625,24.0117188 C41.320308,23.1132768 39.9843838,22.6640625 38.21875,22.6640625 C36.6718673,22.6640625 35.3750052,23.0546836 34.328125,23.8359375 C33.2812448,24.6171914 32.7578125,25.5624945 32.7578125,26.671875 L28.3984375,26.671875 C28.3984375,25.4062437 28.8476518,24.1835996 29.7460938,23.0039062 C30.6445357,21.8242129 31.8632736,20.8906284 33.4023438,20.203125 C34.9414139,19.5156216 36.6328033,19.171875 38.4765625,19.171875 C41.3984521,19.171875 43.6874917,19.9023364 45.34375,21.3632812 C47.0000083,22.8242261 47.8593747,24.8359247 47.921875,27.3984375 L47.921875,39.0703125 C47.921875,41.3984491 48.218747,43.2499931 48.8125,44.625 L48.8125,45 L44.265625,45 Z M37.0703125,41.6953125 C38.4296943,41.6953125 39.7187439,41.3437535 40.9375,40.640625 C42.1562561,39.9374965 43.0390598,39.0234431 43.5859375,37.8984375 L43.5859375,32.6953125 L40.1875,32.6953125 C34.8749734,32.6953125 32.21875,34.2499845 32.21875,37.359375 C32.21875,38.7187568 32.6718705,39.7812462 33.578125,40.546875 C34.4843795,41.3125038 35.6484304,41.6953125 37.0703125,41.6953125 Z M58.3203125,19.640625 L58.4609375,22.828125 C60.3984472,20.3906128 62.9296719,19.171875 66.0546875,19.171875 C71.4140893,19.171875 74.1171873,22.1952823 74.1640625,28.2421875 L74.1640625,45 L69.828125,45 L69.828125,28.21875 C69.8124999,26.3906159 69.3945354,25.0390669 68.5742188,24.1640625 C67.7539021,23.2890581 66.4765712,22.8515625 64.7421875,22.8515625 C63.3359305,22.8515625 62.1015678,23.2265588 61.0390625,23.9765625 C59.9765572,24.7265662 59.1484405,25.7109314 58.5546875,26.9296875 L58.5546875,45 L54.21875,45 L54.21875,19.640625 L58.3203125,19.640625 Z M79.1484375,32.109375 C79.1484375,28.2187305 80.0703033,25.0898556 81.9140625,22.7226562 C83.7578217,20.3554569 86.1718601,19.171875 89.15625,19.171875 C92.1250148,19.171875 94.4765538,20.1874898 96.2109375,22.21875 L96.2109375,9 L100.546875,9 L100.546875,45 L96.5625,45 L96.3515625,42.28125 C94.6171788,44.4062606 92.2031405,45.46875 89.109375,45.46875 C86.1718603,45.46875 83.777353,44.265637 81.9257812,41.859375 C80.0742095,39.453113 79.1484375,36.3125194 79.1484375,32.4375 L79.1484375,32.109375 Z M83.484375,32.6015625 C83.484375,35.4765769 84.0781191,37.7265544 85.265625,39.3515625 C86.4531309,40.9765706 88.0937395,41.7890625 90.1875,41.7890625 C92.9375138,41.7890625 94.9453062,40.5546998 96.2109375,38.0859375 L96.2109375,26.4375 C94.914056,24.046863 92.9218884,22.8515625 90.234375,22.8515625 C88.1093644,22.8515625 86.4531309,23.6718668 85.265625,25.3125 C84.0781191,26.9531332 83.484375,29.3827964 83.484375,32.6015625 Z M125.804688,37.96875 L113.476562,37.96875 L111.132812,45 L103.65625,45 L116.359375,10.875 L122.875,10.875 L135.648438,45 L128.171875,45 L125.804688,37.96875 Z M115.375,32.2734375 L123.90625,32.2734375 L119.617188,19.5 L115.375,32.2734375 Z M136.835938,32.1328125 C136.835938,28.1796677 137.722647,25.0312617 139.496094,22.6875 C141.26954,20.3437383 143.695297,19.171875 146.773438,19.171875 C149.2422,19.171875 151.281242,20.0937408 152.890625,21.9375 L152.890625,9 L159.6875,9 L159.6875,45 L153.570312,45 L153.242188,42.3046875 C151.554679,44.414073 149.382826,45.46875 146.726562,45.46875 C143.742173,45.46875 141.347665,44.2929805 139.542969,41.9414062 C137.738272,39.589832 136.835938,36.3203334 136.835938,32.1328125 Z M143.609375,32.625 C143.609375,35.0000119 144.023433,36.8203062 144.851562,38.0859375 C145.679692,39.3515688 146.882805,39.984375 148.460938,39.984375 C150.554698,39.984375 152.031246,39.1015713 152.890625,37.3359375 L152.890625,27.328125 C152.046871,25.5624912 150.585948,24.6796875 148.507812,24.6796875 C145.242171,24.6796875 143.609375,27.3280985 143.609375,32.625 Z M173.929688,36.7265625 L178.640625,19.640625 L185.71875,19.640625 L177.164062,45 L170.695312,45 L162.140625,19.640625 L169.21875,19.640625 L173.929688,36.7265625 Z M195.34375,45 L188.546875,45 L188.546875,19.640625 L195.34375,19.640625 L195.34375,45 Z M188.148438,13.078125 C188.148438,12.0624949 188.488278,11.2265658 189.167969,10.5703125 C189.84766,9.91405922 190.773432,9.5859375 191.945312,9.5859375 C193.101568,9.5859375 194.023434,9.91405922 194.710938,10.5703125 C195.398441,11.2265658 195.742188,12.0624949 195.742188,13.078125 C195.742188,14.1093802 195.394535,14.9531217 194.699219,15.609375 C194.003903,16.2656283 193.085943,16.59375 191.945312,16.59375 C190.804682,16.59375 189.886722,16.2656283 189.191406,15.609375 C188.49609,14.9531217 188.148438,14.1093802 188.148438,13.078125 Z M214.15625,37.9921875 C214.15625,37.1640584 213.746098,36.5117211 212.925781,36.0351562 C212.105465,35.5585914 210.789072,35.1328144 208.976562,34.7578125 C202.945282,33.4921812 199.929688,30.9297068 199.929688,27.0703125 C199.929688,24.8203012 200.863272,22.9414138 202.730469,21.4335938 C204.597666,19.9257737 207.039047,19.171875 210.054688,19.171875 C213.273454,19.171875 215.847647,19.9296799 217.777344,21.4453125 C219.707041,22.9609451 220.671875,24.9296754 220.671875,27.3515625 L213.898438,27.3515625 C213.898438,26.3828077 213.585941,25.5820344 212.960938,24.9492188 C212.335934,24.3164031 211.359382,24 210.03125,24 C208.890619,24 208.007816,24.2578099 207.382812,24.7734375 C206.757809,25.2890651 206.445312,25.9453085 206.445312,26.7421875 C206.445312,27.4921913 206.800778,28.0976539 207.511719,28.5585938 C208.22266,29.0195336 209.421867,29.4179671 211.109375,29.7539062 C212.796883,30.0898454 214.218744,30.4687479 215.375,30.890625 C218.953143,32.2031316 220.742188,34.4765463 220.742188,37.7109375 C220.742188,40.0234491 219.75001,41.8945241 217.765625,43.3242188 C215.78124,44.7539134 213.218766,45.46875 210.078125,45.46875 C207.953114,45.46875 206.066414,45.0898475 204.417969,44.3320312 C202.769523,43.574215 201.476567,42.5351629 200.539062,41.2148438 C199.601558,39.8945246 199.132812,38.4687577 199.132812,36.9375 L205.554688,36.9375 C205.617188,38.140631 206.062496,39.0624968 206.890625,39.703125 C207.718754,40.3437532 208.828118,40.6640625 210.21875,40.6640625 C211.515631,40.6640625 212.49609,40.4179712 213.160156,39.9257812 C213.824222,39.4335913 214.15625,38.7890665 214.15625,37.9921875 Z M223.546875,32.0859375 C223.546875,29.5702999 224.031245,27.3281348 225,25.359375 C225.968755,23.3906152 227.363272,21.8671929 229.183594,20.7890625 C231.003915,19.7109321 233.117175,19.171875 235.523438,19.171875 C238.94533,19.171875 241.73827,20.2187395 243.902344,22.3125 C246.066417,24.4062605 247.273436,27.249982 247.523438,30.84375 L247.570312,32.578125 C247.570312,36.4687695 246.484386,39.589832 244.3125,41.9414062 C242.140614,44.2929805 239.226581,45.46875 235.570312,45.46875 C231.914044,45.46875 228.996105,44.2968867 226.816406,41.953125 C224.636708,39.6093633 223.546875,36.4218952 223.546875,32.390625 L223.546875,32.0859375 Z M230.320312,32.578125 C230.320312,34.984387 230.773433,36.8242124 231.679688,38.0976562 C232.585942,39.3711001 233.882804,40.0078125 235.570312,40.0078125 C237.210946,40.0078125 238.492183,39.3789125 239.414062,38.1210938 C240.335942,36.863275 240.796875,34.8515763 240.796875,32.0859375 C240.796875,29.7265507 240.335942,27.898444 239.414062,26.6015625 C238.492183,25.304681 237.195321,24.65625 235.523438,24.65625 C233.867179,24.65625 232.585942,25.3007748 231.679688,26.5898438 C230.773433,27.8789127 230.320312,29.8749865 230.320312,32.578125 Z M265.492188,25.9921875 C264.570308,25.8671869 263.757816,25.8046875 263.054688,25.8046875 C260.492175,25.8046875 258.812504,26.6718663 258.015625,28.40625 L258.015625,45 L251.242188,45 L251.242188,19.640625 L257.640625,19.640625 L257.828125,22.6640625 C259.187507,20.3359259 261.0703,19.171875 263.476562,19.171875 C264.226566,19.171875 264.929684,19.2734365 265.585938,19.4765625 L265.492188,25.9921875 Z M281.984375,37.9921875 C281.984375,37.1640584 281.574223,36.5117211 280.753906,36.0351562 C279.93359,35.5585914 278.617197,35.1328144 276.804688,34.7578125 C270.773407,33.4921812 267.757812,30.9297068 267.757812,27.0703125 C267.757812,24.8203012 268.691397,22.9414138 270.558594,21.4335938 C272.425791,19.9257737 274.867172,19.171875 277.882812,19.171875 C281.101579,19.171875 283.675772,19.9296799 285.605469,21.4453125 C287.535166,22.9609451 288.5,24.9296754 288.5,27.3515625 L281.726562,27.3515625 C281.726562,26.3828077 281.414066,25.5820344 280.789062,24.9492188 C280.164059,24.3164031 279.187507,24 277.859375,24 C276.718744,24 275.835941,24.2578099 275.210938,24.7734375 C274.585934,25.2890651 274.273438,25.9453085 274.273438,26.7421875 C274.273438,27.4921913 274.628903,28.0976539 275.339844,28.5585938 C276.050785,29.0195336 277.249992,29.4179671 278.9375,29.7539062 C280.625008,30.0898454 282.046869,30.4687479 283.203125,30.890625 C286.781268,32.2031316 288.570312,34.4765463 288.570312,37.7109375 C288.570312,40.0234491 287.578135,41.8945241 285.59375,43.3242188 C283.609365,44.7539134 281.046891,45.46875 277.90625,45.46875 C275.781239,45.46875 273.894539,45.0898475 272.246094,44.3320312 C270.597648,43.574215 269.304692,42.5351629 268.367188,41.2148438 C267.429683,39.8945246 266.960938,38.4687577 266.960938,36.9375 L273.382812,36.9375 C273.445313,38.140631 273.890621,39.0624968 274.71875,39.703125 C275.546879,40.3437532 276.656243,40.6640625 278.046875,40.6640625 C279.343756,40.6640625 280.324215,40.4179712 280.988281,39.9257812 C281.652347,39.4335913 281.984375,38.7890665 281.984375,37.9921875 Z" id="LandAdvisors" fill="#343434"></path>
            <path d="M8.3740329,55.9136647 C-18.8630082,55.9136647 78.4812231,55.9136647 300.406727,55.9136647 L327.602159,28.7182326 L354.797591,55.9136647 L397.711256,13 L440.62492,55.9136647 L491.36708,55.9136647" id="Path" stroke="#343434" stroke-width="5" fill-rule="nonzero"></path>
        </g>
    </g>
</svg>